<svg id="visual" viewBox="0 0 960 540" width="960" height="540" xmlns="http://www.w3.org/2000/svg" xmlns:xlink="http://www.w3.org/1999/xlink" version="1.1">
    <rect x="0" y="0" width="960" height="540" fill="#151A23"/>
    <path d="M0 243L192 214L384 145L576 237L768 267L960 189L960 541L768 541L576 541L384 541L192 541L0 541Z" fill="#222833"/>
    <path d="M0 226L192 307L384 321L576 238L768 206L960 293L960 541L768 541L576 541L384 541L192 541L0 541Z" fill="#2d333e"/>
    <path d="M0 304L192 371L384 405L576 370L768 332L960 327L960 541L768 541L576 541L384 541L192 541L0 541Z" fill="#383e4a"/>
    <path d="M0 437L192 402L384 461L576 445L768 477L960 431L960 541L768 541L576 541L384 541L192 541L0 541Z" fill="#434956"/>
</svg>