<svg width="64px" height="64px" viewBox="0 0 120 120" id="Layer_1" version="1.1" xml:space="preserve" xmlns="http://www.w3.org/2000/svg" xmlns:xlink="http://www.w3.org/1999/xlink" fill="#000000">
    <g id="SVGRepo_bgCarrier" stroke-width="0"/>
    <g id="SVGRepo_tracerCarrier" stroke-linecap="round" stroke-linejoin="round"/>
    <g id="SVGRepo_iconCarrier" style="" transform="matrix(1.392571, 0, 0, 1.392571, -23.55422, -23.55422)">
        <style type="text/css">
            .st0{fill:#F9D984;} .st1{fill:#fffde5;} .st2{fill:#EFBA50;} .st3{fill:#E5AE36;}
        </style>
        <g>
            <circle class="st0" cx="60" cy="60" r="42.1"/>
            <circle class="st1" cx="60" cy="60" r="34.4"/>
            <path class="st2" d="M79.8,56.5H63.5V32.9c0-1.9-1.6-3.5-3.5-3.5c-1.9,0-3.5,1.6-3.5,3.5v26.6c0,0.1,0,0.2,0,0.3c0,0.1,0,0.2,0,0.3 c0,1.9,1.6,3.5,3.5,3.5h19.8c1.9,0,3.5-1.6,3.5-3.5C83.3,58.1,81.7,56.5,79.8,56.5z"/>
            <circle class="st3" cx="60" cy="60" r="6.7"/>
        </g>
    </g>
</svg>