<svg height="64px" width="64px" version="1.1" id="Layer_1" xmlns="http://www.w3.org/2000/svg" xmlns:xlink="http://www.w3.org/1999/xlink" viewBox="0 0 512 512" xml:space="preserve" fill="#000000">
	<g id="SVGRepo_bgCarrier" stroke-width="0"/>
	<g id="SVGRepo_tracerCarrier" stroke-linecap="round" stroke-linejoin="round"/>
	<g id="SVGRepo_iconCarrier" transform="matrix(1.478524, 0, 0, 1.478524, -122.429008, -124.923645)">
		<path style="fill:#EFBA50;" d="M256.001,413.14c-4.997,0-9.738-2.253-12.92-6.144L90.044,219.975 c-4.691-5.732-5.126-13.881-1.07-20.089l54.617-83.616c3.098-4.745,8.359-7.601,13.99-7.601h196.845 c5.63,0,10.888,2.856,13.991,7.601l54.612,83.616c4.055,6.207,3.623,14.356-1.068,20.089L268.919,406.996 C265.736,410.886,260.998,413.14,256.001,413.14z"/>
		<g>
			<path style="fill:#F9D984;" d="M149.967,110.538c-2.541,1.307-4.756,3.252-6.375,5.732l-54.619,83.616 c-2.068,3.165-2.963,6.84-2.724,10.443h128.902L149.967,110.538z"/>
			<path style="fill:#F9D984;" d="M296.846,210.329h128.907c0.236-3.603-0.653-7.278-2.726-10.443l-54.62-83.616 c-1.617-2.481-3.828-4.425-6.374-5.732L296.846,210.329z"/>
			<polygon style="fill:#F9D984;" points="256.001,413.176 322.5,210.329 189.911,210.329 "/>
		</g>
		<polygon style="fill:#FEFAC8;" points="255.904,108.669 189.5,210.329 322.5,210.329 256.096,108.669 "/>
		<path style="opacity:0.1;enable-background:new ;" d="M134.669,219.975c-4.688-5.732-5.123-13.881-1.07-20.089l54.619-83.616 c3.098-4.745,8.359-7.601,13.989-7.601H157.58c-5.631,0-10.892,2.856-13.99,7.601l-54.617,83.616 c-4.056,6.207-3.621,14.356,1.07,20.089L243.08,406.996C246.263,410.886,134.669,219.975,134.669,219.975z"/>
	</g>
</svg>